Coordinates
version=1
nRows=12
nColumns=24
inDegrees=yes

Units are S.I. units (second, meters, Newtons, ...)
Angles are in degrees.

endheader
time	pelvis_tilt	pelvis_list	pelvis_rotation	pelvis_tx	pelvis_ty	pelvis_tz	hip_flexion_r	hip_adduction_r	hip_rotation_r	knee_angle_r	ankle_angle_r	subtalar_angle_r	mtp_angle_r	hip_flexion_l	hip_adduction_l	hip_rotation_l	knee_angle_l	ankle_angle_l	subtalar_angle_l	mtp_angle_l	lumbar_extension	lumbar_bending	lumbar_rotation
      0.73400000	     -3.56515229	      2.23699623	      1.87509500	     -0.45063548	      1.07105029	      0.34348865	     15.22198593	      1.08478945	     -1.49254750	    -18.96766955	      9.04926185	     -5.14454076	      5.01073882	     17.96860212	     -2.88803159	     -6.76565170	    -69.66153534	      5.05631439	      1.27972816	      3.92219389	     -8.69383095	      2.35291003	      1.25841121
      0.73816667	     -3.54038830	      2.34053813	      1.77369801	     -0.44542041	      1.07207204	      0.34399049	     14.71719110	      1.01213893	     -1.47500086	    -18.60906964	      9.13725704	     -4.98446537	      5.00237115	     18.42939588	     -2.81966180	     -6.97713084	    -69.38872967	      5.37027360	      1.47196953	      3.87609542	     -8.73661239	      2.18165444	      1.43122961
      0.74233333	     -3.49511209	      2.43909964	      1.66044168	     -0.44021580	      1.07308755	      0.34449810	     14.19168125	      0.94526981	     -1.44955856	    -18.24852439	      9.22427000	     -4.82192674	      4.99718314	     18.85464886	     -2.75984317	     -7.19848340	    -69.06377921	      5.67276164	      1.67047703	      3.84313745	     -8.80731111	      2.00569209	      1.60565826
      0.74650000	     -3.46216994	      2.53621497	      1.53292385	     -0.43501458	      1.07404501	      0.34499286	     13.68382220	      0.87826766	     -1.41497454	    -17.89126322	      9.28254329	     -4.66710923	      4.99456797	     19.27799060	     -2.70218958	     -7.44060496	    -68.68461647	      5.98232100	      1.86623851	      3.82669910	     -8.84969578	      1.86473037	      1.74983116
      0.75066667	     -3.40324459	      2.60503347	      1.41301964	     -0.42983646	      1.07499290	      0.34547508	     13.13985576	      0.84110710	     -1.38461413	    -17.51371709	      9.38609353	     -4.51165435	      4.98765272	     19.67078505	     -2.67609753	     -7.66960466	    -68.26919369	      6.26821619	      2.09884906	      3.78383288	     -8.94108724	      1.73154200	      2.05968214
      0.75483333	     -3.36369666	      2.69625726	      1.26649814	     -0.42467743	      1.07585060	      0.34599943	     12.63333673	      0.78263083	     -1.32667712	    -17.16351815	      9.45073822	     -4.36289412	      4.98618587	     20.06690153	     -2.63581266	     -7.94207024	    -67.80102899	      6.56228102	      2.32104733	      3.77246004	     -9.00062718	      1.57359499	      2.17242468
      0.75900000	     -3.29083333	      2.75565082	      1.13257185	     -0.41951922	      1.07671722	      0.34648383	     12.08068315	      0.75375646	     -1.29185718	    -16.79286681	      9.55668514	     -4.22025505	      4.98367651	     20.42095779	     -2.62613354	     -8.19341000	    -67.29313524	      6.84833609	      2.58324075	      3.75143969	     -9.09890412	      1.45565756	      2.42975370
      0.76316667	     -3.27232139	      2.83172203	      0.97906426	     -0.41439014	      1.07743747	      0.34699152	     11.60095071	      0.70858587	     -1.22162911	    -16.44136576	      9.60969841	     -4.07402190	      4.98328551	     20.82253642	     -2.60052743	     -8.47178650	    -66.74068344	      7.12817185	      2.78398252	      3.74367004	     -9.14422843	      1.31763996	      2.56191360
      0.76733333	     -3.21172637	      2.88343624	      0.83102066	     -0.40925570	      1.07817289	      0.34747274	     11.07064809	      0.68598977	     -1.16807066	    -16.08312179	      9.70309934	     -3.94086174	      4.98319362	     21.16786977	     -2.60204645	     -8.74162434	    -66.14609118	      7.41024369	      3.05112460	      3.73408372	     -9.22294165	      1.22080968	      2.78370734
      0.77150000	     -3.16417601	      2.92909001	      0.68882722	     -0.40414937	      1.07883977	      0.34792972	     10.55467400	      0.66727875	     -1.10871537	    -15.72013807	      9.79309493	     -3.81102863	      4.98147760	     21.52230449	     -2.60149056	     -8.99770848	    -65.51383292	      7.66769473	      3.27264470	      3.71560467	     -9.30590527	      1.10888703	      3.05577110
      0.77566667	     -3.11786301	      2.97457812	      0.53650965	     -0.39905129	      1.07945046	      0.34839257	     10.04638984	      0.64764820	     -1.04184158	    -15.36729576	      9.87358315	     -3.68455443	      4.98106187	     21.86410768	     -2.60456332	     -9.26732364	    -64.83539964	      7.92847513	      3.50837249	      3.70249521	     -9.37971995	      1.00982808	      3.24025462
      0.77983333	     -3.09180199	      3.01867529	      0.37804414	     -0.39395207	      1.07997228	      0.34885038	      9.56903416	      0.62698582	     -0.97541471	    -15.03307562	      9.94447680	     -3.55757676	      4.98195726	     22.21403932	     -2.60849918	     -9.54233880	    -64.11271676	      8.18142362	      3.73436420	      3.69693473	     -9.42176580	      0.92882425	      3.38058166
